<?xml version="1.0" encoding="UTF-8" standalone="no"?>
<!-- Created with Inkscape (http://www.inkscape.org/) -->

<svg
   width="31.851408mm"
   height="35.635452mm"
   viewBox="0 0 31.851408 35.635452"
   version="1.1"
   id="svg1"
   xml:space="preserve"
   xmlns:xlink="http://www.w3.org/1999/xlink"
   xmlns="http://www.w3.org/2000/svg"
   xmlns:svg="http://www.w3.org/2000/svg"><defs
     id="defs1"><linearGradient
       id="linearGradient12"><stop
         style="stop-color:#6d4aff;stop-opacity:1;"
         offset="0"
         id="stop12" /><stop
         style="stop-color:#41e988;stop-opacity:1;"
         offset="1"
         id="stop13" /></linearGradient><linearGradient
       xlink:href="#linearGradient12"
       id="linearGradient13"
       x1="339.5"
       y1="334.00977"
       x2="685.83008"
       y2="334.00977"
       gradientUnits="userSpaceOnUse"
       gradientTransform="matrix(0.0919684,0,0,0.0919684,-4.2808032,81.388804)"
       spreadMethod="repeat" /></defs><g
     id="layer1"
     transform="translate(-26.942528,-94.290067)"><path
       id="path1"
       style="fill:url(#linearGradient13);fill-opacity:1;stroke-width:0.0919685"
       d="m 42.680022,94.290064 -0.12861,0.0194 -0.29441,0.046 -0.18017,0.0377 -0.1022,0.034 -0.10562,0.0369 -0.0598,0.0239 -0.12412,0.0524 -0.0718,0.034 -0.1507,0.0718 -0.0884,0.0451 -0.18573,0.0965 -0.10759,0.058 -0.22723,0.12411 -0.13239,0.0746 -0.2768,0.15628 -0.15914,0.0911 -0.33393,0.1931 -0.1913,0.11137 -0.39912,0.23351 -0.22616,0.13346 -0.47098,0.2777 -0.26566,0.15628 -0.27052,0.16005 -0.14334,0.0855 -0.29153,0.17298 -0.154481,0.0911 -0.313627,0.18662 -0.165615,0.0984 -0.337516,0.19956 -0.177471,0.1058 -0.361408,0.21429 -0.189504,0.11317 -0.386196,0.22993 -0.203336,0.12034 -0.579473,0.34399 -0.411882,0.24464 -0.214293,0.127 -0.8737,0.51858 -0.43685,0.25938 -0.434156,0.25758 -0.210521,0.125016 -0.416732,0.24645 -0.195792,0.11675 -0.384579,0.22813 -0.174596,0.104 -0.339492,0.20136 -0.148013,0.0873 -0.867232,0.52702 -0.274109,0.17118 -0.12969,0.0818 -0.252015,0.16094 -0.115858,0.0763 -0.224353,0.14712 -0.09933,0.0672 -0.188606,0.1288 -0.07903,0.056 -0.146216,0.1058 -0.05514,0.0424 -0.09754,0.0781 -0.02856,0.0266 -0.189327,0.21159 -0.131665,0.17191 -0.06521,0.0966 -0.255608,0.41008 -0.102207,0.21339 -0.339313,0.71096 v 15.17479 l 0.285066,0.60247 0.289736,0.52504 0.1058,0.16651 0.05047,0.0708 0.09754,0.13328 0.04149,0.047 0.15358,0.16921 0.05604,0.0551 0.05245,0.0505 0.02012,0.0167 0.03682,0.0292 0.01293,0.007 0.02011,0.008 0.0038,-0.004 0.0027,-0.0147 -0.0054,-0.0156 -0.01562,-0.0368 -0.01562,-0.0266 -0.004,-0.007 0.03054,0.035 0.102027,0.0966 0.05712,0.0505 0.144419,0.11605 0.07903,0.0596 0.192199,0.13796 0.102926,0.0718 0.246626,0.16454 0.129691,0.0855 0.304285,0.19507 0.160047,0.10113 0.367873,0.22902 0.1922,0.11964 0.435951,0.26745 0.227227,0.13796 0.509419,0.31004 0.264948,0.16094 0.588633,0.35584 0.151605,0.092 0.320094,0.19328 0.504927,0.30519 0.116757,0.0699 0.28794,0.17387 0.151784,0.092 0.347576,0.2098 0.179266,0.10939 0.394638,0.23728 0.201361,0.12233 0.42679,0.2583 0.433976,0.26225 0.911421,0.55092 1.329954,0.80472 0.18016,0.10939 0.33573,0.20226 0.16381,0.0984 0.30339,0.18214 0.14801,0.0882 0.27412,0.16382 0.13346,0.0791 0.24644,0.14621 0.11945,0.0699 0.22077,0.12879 0.10759,0.0625 0.19687,0.11316 0.0956,0.0552 0.17567,0.0984 0.0855,0.0469 0.15555,0.0855 0.15178,0.0819 0.25184,0.12789 0.11873,0.0587 0.19957,0.0875 0.0947,0.0395 0.16382,0.0569 0.22058,0.0589 0.0607,0.013 0.14532,0.0156 0.0763,0.007 0.17118,0.003 h 0.17567 l 0.39087,-0.0341 0.19579,-0.022 0.37992,-0.0728 0.0911,-0.0203 0.16831,-0.0449 0.0808,-0.0241 0.14263,-0.0534 0.0147,-0.006 0.0607,-0.0303 0.0358,-0.0185 0.0984,-0.0534 0.0534,-0.0295 0.13436,-0.0744 0.0708,-0.0406 0.16633,-0.0947 0.0875,-0.0496 0.19687,-0.11317 0.10203,-0.0589 0.22435,-0.13059 0.11585,-0.0661 0.25023,-0.14639 0.12789,-0.0744 0.27393,-0.16005 0.27788,-0.16274 0.61612,-0.36249 0.31542,-0.18573 0.67504,-0.39913 0.34308,-0.20226 0.71545,-0.42499 0.36051,-0.21429 0.73575,-0.43775 0.73771,-0.43865 1.45121,-0.86921 0.35404,-0.21232 0.6788,-0.40847 0.33195,-0.20046 0.61989,-0.37434 0.15088,-0.0909 0.28597,-0.17387 0.14065,-0.0855 0.26495,-0.16094 0.12968,-0.0792 0.24088,-0.14801 0.11784,-0.0717 0.21429,-0.13256 0.10382,-0.0634 0.18573,-0.11585 0.0893,-0.0552 0.15448,-0.0975 0.0736,-0.046 0.12142,-0.0773 0.14066,-0.092 0.17926,-0.12143 0.34865,-0.29243 0.17011,-0.15179 0.30896,-0.33194 0.14818,-0.16831 0.24358,-0.34219 0.0563,-0.0846 0.0947,-0.16741 0.11496,-0.24088 0.21339,-0.52881 0.0248,-7.35569 0.002,-0.31542 8.5e-4,-0.59958 8.4e-4,-0.29531 8.5e-4,-0.56007 8.5e-4,-0.2759 v -0.52057 -0.2556 -0.48283 -0.23639 l -8.5e-4,-0.44332 -8.5e-4,-0.21698 -0.002,-0.4065 -8.5e-4,-0.19777 -0.002,-0.36877 -8.5e-4,-0.17927 -0.003,-0.33123 -0.002,-0.16094 -0.003,-0.29423 -0.002,-0.14262 -0.005,-0.2583 -0.002,-0.12521 -0.005,-0.22165 -0.003,-0.10759 -0.006,-0.18664 -0.003,-0.0893 -0.006,-0.15161 -0.003,-0.0718 -0.007,-0.11765 -0.003,-0.0542 -0.008,-0.0837 -0.0119,-0.0864 -0.0138,-0.0662 -0.0433,-0.15627 -0.0239,-0.0802 -0.058,-0.16741 -0.0303,-0.0837 -0.0643,-0.16005 -0.0984,-0.20782 -0.0579,-0.11119 -0.17208,-0.25291 -0.0911,-0.127 -0.19957,-0.24088 -0.0496,-0.056 -0.0948,-0.10131 -0.046,-0.0478 -0.0846,-0.0781 -0.0404,-0.0359 -0.0681,-0.0478 -0.0763,-0.0303 h -0.0109 l -0.0424,-0.0175 -0.0239,-0.012 -0.0598,-0.0369 -0.16993,-0.12645 0.18286,0.13112 0.056,0.0295 0.0203,0.007 0.034,0.006 0.007,-0.006 -0.005,-0.0377 -0.0332,-0.0406 -0.0313,-0.0275 -0.0717,-0.0589 -0.0507,-0.0377 -0.11029,-0.079 -0.0699,-0.0469 -0.1482,-0.0984 -0.0891,-0.056 -0.18681,-0.11783 -0.10759,-0.0661 -0.22526,-0.13706 -0.12699,-0.0754 -0.26297,-0.15628 -0.14622,-0.0857 -0.40829,-0.23908 -0.28884,-0.1701 -0.14154,-0.0846 -0.27878,-0.16561 -0.12323,-0.0735 -0.2344,-0.14083 -0.0884,-0.0534 -0.17927,-0.10759 -0.16292,-0.0965 -0.10023,-0.0598 -0.21232,-0.125016 -0.12233,-0.0728 -0.25398,-0.14981 -0.13975,-0.0819 -0.28687,-0.16831 -0.15268,-0.0902 -0.31182,-0.18214 -0.16185,-0.0956 -0.6621,-0.38727 -0.33482,-0.19489 -0.52793,-0.30806 -0.37344,-0.21806 -0.19399,-0.11299 -0.7882,-0.46092 -0.39176,-0.22884 -0.38907,-0.22723 -0.18843,-0.11028 -0.37075,-0.21718 -0.1746,-0.10202 -0.34128,-0.19957 -0.15448,-0.0902 -0.2989,-0.17477 -0.12969,-0.0763 -0.7679,-0.44691 -0.48661,-0.2795 -0.21232,-0.12052 -0.20603,-0.11784 -0.0929,-0.0513 -0.17658,-0.0993 -0.0754,-0.0424 -0.14172,-0.0781 -0.0552,-0.0295 -0.0993,-0.0524 -0.0313,-0.0165 -0.492,-0.20873 -0.32925,-0.1049 -0.16005,-0.034 -0.31632,-0.0552 -0.14909,-0.008 z m 0.1904,2.00122 0.092,0.0147 0.19041,0.0386 0.11046,0.0377 0.23172,0.0893 0.13796,0.0643 0.29063,0.14352 0.17459,0.0957 0.17945,0.0983 0.0984,0.0563 0.20136,0.11496 0.11029,0.0643 0.22633,0.13238 0.12323,0.0728 0.25291,0.15088 0.13795,0.0818 0.32746,0.19596 0.2583,0.15269 0.14532,0.0864 0.30177,0.17837 0.16274,0.0966 0.33285,0.19687 0.17477,0.10293 0.71923,0.42391 0.36697,0.21627 0.73197,0.42949 0.34129,0.19956 1.04022,0.609646 0.6842,0.40111 0.31272,0.18393 0.30626,0.17927 0.14065,0.0828 0.27321,0.16005 0.12035,0.0717 0.231,0.13526 0.0956,0.056 0.17837,0.10491 0.0662,0.0395 0.33932,0.20046 0.2098,0.12323 0.0974,0.0569 0.36518,0.21429 0.15357,0.0902 0.28795,0.1665 0.11765,0.0672 0.21897,0.12502 0.0873,0.0478 0.15826,0.0864 0.0596,0.0303 0.10761,0.0544 0.0369,0.0156 0.0654,0.0257 0.0192,0.005 0.0303,0.002 0.006,-0.006 -5.4e-4,-0.0198 0.12646,0.0988 0.4047,0.26405 0.12699,0.0754 0.25202,0.19957 0.12232,0.10562 0.22345,0.23926 0.10473,0.12233 0.16741,0.24734 0.0369,0.0607 0.0589,0.11855 0.0634,0.16741 0.003,0.0156 0.008,0.0672 0.003,0.0395 0.008,0.11407 0.003,0.0625 0.007,0.15824 0.003,0.0847 0.007,0.19866 0.003,0.10383 0.006,0.23638 0.003,0.12233 0.006,0.27033 0.002,0.13903 0.005,0.3016 0.003,0.15447 0.003,0.32926 0.003,0.33572 0.007,0.74221 0.003,0.38063 0.005,0.81119 0.002,0.41296 0.002,0.85628 v 0.43127 0.8755 0.43883 l -0.002,0.86903 -0.002,0.43128 -0.003,0.83795 -0.003,0.41188 -0.007,0.78084 -0.003,0.3799 -0.008,0.69803 -0.003,0.16742 -0.004,0.31631 -0.003,0.15448 -0.004,0.28705 -0.003,0.13885 -0.006,0.2538 -0.003,0.12323 -0.007,0.21788 -0.003,0.10401 -0.007,0.17927 -0.003,0.0846 -0.008,0.13616 -0.003,0.0634 -0.008,0.0911 -0.0128,0.0828 -0.0258,0.0947 -0.0746,0.17567 -0.0449,0.0884 -0.14442,0.18663 -0.0433,0.0489 -0.10581,0.10471 -0.056,0.0534 -0.13795,0.11784 -0.0736,0.0605 -0.17568,0.13436 -0.0938,0.0699 -0.21879,0.15448 -0.11496,0.081 -0.26764,0.17927 -0.13975,0.0929 -0.32189,0.20692 -0.16741,0.1076 -0.3808,0.23926 -0.19867,0.12412 -0.44511,0.27411 -0.23083,0.14245 -0.51588,0.31362 -0.26675,0.16185 -0.59132,0.35781 -0.30537,0.18394 -0.67144,0.4038 -0.17388,0.10382 -0.3623,0.21806 -0.56923,0.34111 -0.40291,0.24196 -0.78263,0.46721 -0.38529,0.23082 -0.73306,0.43595 -0.35853,0.21429 -0.66677,0.39536 -0.16202,0.0957 -0.30895,0.18285 -0.15089,0.0893 -0.28597,0.16921 -0.14064,0.0828 -0.26118,0.15448 -0.1279,0.0746 -0.23549,0.13795 -0.11406,0.0672 -0.20603,0.12035 -0.0992,0.058 -0.17567,0.10203 -0.0837,0.0489 -0.14352,0.0818 -0.0672,0.0386 -0.1076,0.0607 -0.0496,0.0276 -0.0709,0.0386 -0.0616,0.0322 -0.0431,0.0175 -0.11963,0.0324 -0.0643,0.0156 -0.14909,0.0257 -0.46721,0.0369 h -0.0763 l -0.12861,-0.003 -0.0627,-0.003 -0.12034,-0.0165 -0.0616,-0.012 -0.13885,-0.046 -0.0746,-0.0274 -0.18574,-0.0884 -0.0507,-0.0257 -0.11406,-0.0607 -0.0598,-0.0321 -0.13508,-0.0763 -0.0699,-0.0395 -0.16005,-0.0931 -0.0828,-0.0486 -0.18664,-0.11227 -0.0975,-0.0579 -0.21806,-0.13238 -0.11299,-0.0681 -0.25202,-0.15448 -0.13058,-0.0792 -0.29064,-0.17747 -0.48103,-0.29513 -0.127,-0.0773 -0.30339,-0.18591 -0.15914,-0.0974 -0.36052,-0.21897 -0.18573,-0.11316 -0.4029,-0.24465 -0.20603,-0.12502 -0.43218,-0.26117 -0.437748,-0.26585 -0.907829,-0.54804 -0.22525,-0.13615 -0.442418,-0.26675 -0.638211,-0.3835 -0.205133,-0.12323 -0.397331,-0.23998 -0.195793,-0.11783 -0.371645,-0.22525 -0.181063,-0.10939 -0.337516,-0.20513 -0.162922,-0.0993 -0.294227,-0.18034 -0.140647,-0.0864 -0.241955,-0.14891 -0.114063,-0.0709 -0.183039,-0.11388 -0.08262,-0.0524 -0.114064,-0.0728 -0.0846,-0.0587 -0.0047,-0.005 0.01006,-0.0295 0.0083,-0.0183 0.03772,-0.0542 0.0221,-0.0303 0.06251,-0.0781 0.03413,-0.0424 0.0855,-0.0993 0.04598,-0.0524 0.106698,-0.11855 0.05605,-0.0625 0.127893,-0.13705 0.131486,-0.14262 0.315423,-0.33016 0.165615,-0.17298 0.373442,-0.38152 0.192199,-0.19597 0.415654,-0.41853 0.212498,-0.21321 0.44601,-0.44242 0.224353,-0.22256 0.461639,-0.45338 0.462716,-0.45247 0.913217,-0.87927 0.222556,-0.2134 0.424816,-0.40182 0.207826,-0.19597 0.385483,-0.35872 0.18663,-0.17279 0.33195,-0.3007 0.0792,-0.0709 0.14621,-0.1288 0.0707,-0.0625 0.127,-0.11029 0.0616,-0.0524 0.10759,-0.0893 0.0513,-0.0413 0.0866,-0.0672 0.0395,-0.0303 0.0634,-0.0431 0.0663,-0.035 0.15807,-0.0525 0.30357,-0.0395 0.0763,-0.004 0.15447,0.009 0.0773,0.008 0.16004,0.034 0.0819,0.0194 0.17011,0.0587 0.0873,0.0332 0.18592,0.0846 0.0947,0.046 0.20423,0.11298 0.33195,0.20065 0.14065,0.0891 0.25669,0.15357 0.12411,0.0736 0.22903,0.12323 0.11208,0.0589 0.20892,0.0956 0.10291,0.0442 0.19687,0.0699 0.194,0.0643 0.3835,0.0616 0.0975,0.0111 0.20226,0.008 0.32278,-0.007 0.14173,-0.008 0.23818,-0.0257 0.11407,-0.0147 0.21142,-0.0489 0.1058,-0.0275 0.22345,-0.0819 0.39087,-0.1701 0.0875,-0.0404 0.15357,-0.0773 0.0754,-0.0397 0.14802,-0.092 0.0763,-0.0487 0.16741,-0.12699 0.0882,-0.0699 0.20981,-0.18394 0.056,-0.0505 0.12413,-0.11497 0.0654,-0.0607 0.14244,-0.13705 0.0746,-0.0708 0.16562,-0.16185 0.0855,-0.0837 0.18951,-0.1877 0.0983,-0.0975 0.21806,-0.21789 0.11209,-0.11316 0.24842,-0.24914 0.1288,-0.12969 0.28129,-0.28507 0.46451,-0.46918 2.73606,-2.76911 v 0.96118 l 0.006,0.20782 0.004,0.10023 0.0148,0.17478 0.008,0.0835 0.025,0.14531 0.0136,0.069 0.0359,0.11873 0.0194,0.0561 0.0478,0.0957 0.0257,0.0451 0.0616,0.0763 0.24105,0.1701 0.0855,0.0386 0.15806,0.0451 0.0774,0.0165 h 0.1507 l 0.0746,-0.006 0.15268,-0.0451 0.24178,-0.12053 0.0553,-0.0331 0.0929,-0.0754 0.044,-0.0404 0.0718,-0.0984 0.034,-0.0542 0.0534,-0.13526 0.0239,-0.0735 0.0369,-0.18662 0.0165,-0.10041 0.023,-0.25094 0.0103,-0.13436 0.0101,-0.32836 0.005,-0.17567 v -0.41925 -0.11137 l -0.002,-0.24285 -0.004,-0.39356 -0.003,-0.1728 -0.004,-0.31273 -0.002,-0.15089 -0.006,-0.27213 -0.003,-0.13059 -0.0101,-0.23369 -0.007,-0.11227 -0.0192,-0.19758 -0.0102,-0.0948 -0.0303,-0.16544 -0.0165,-0.0792 -0.0441,-0.13597 -0.0248,-0.0645 -0.0616,-0.1094 -0.034,-0.0515 -0.0828,-0.0855 -0.0451,-0.0404 -0.1067,-0.0645 -0.0569,-0.0303 -0.13525,-0.0469 -0.0708,-0.0212 -0.16562,-0.0313 -0.0864,-0.0147 -0.19867,-0.0192 -0.104,-0.009 -0.23621,-0.0102 -0.12233,-0.003 -0.2768,-0.005 -0.14352,-8.5e-4 -0.3192,-8.5e-4 h -0.53151 l -2.10145,-8.4e-4 -0.31272,0.31272 -0.0524,0.0525 -0.0864,0.1085 -0.0395,0.0552 -0.0607,0.11227 -0.0277,0.0569 -0.0359,0.11495 -0.0147,0.058 -0.0101,0.11676 -0.002,0.0579 0.0148,0.11694 0.0109,0.0579 0.0404,0.11586 0.0241,0.058 0.0652,0.11407 0.1279,0.16741 0.0643,0.0717 0.104,0.0966 0.0524,0.0422 0.12772,0.0524 0.0359,0.0109 0.0882,0.0176 0.047,0.008 0.11497,0.0128 0.0616,0.007 0.14982,0.0103 0.27321,0.0165 0.8525,0.0478 -2.01594,2.07396 -0.20046,0.20585 -0.36608,0.37632 -0.17837,0.18195 -0.32477,0.33124 -0.15627,0.15897 -0.28597,0.28883 -0.13885,0.13885 -0.25111,0.24824 -0.12143,0.11964 -0.21986,0.2107 -0.1067,0.10203 -0.1922,0.17657 -0.0938,0.0846 -0.1683,0.14621 -0.0819,0.069 -0.1489,0.11765 -0.0717,0.0553 -0.13257,0.0909 -0.0643,0.0433 -0.12053,0.069 -0.11675,0.0634 -0.2116,0.0709 -0.10472,0.0274 -0.20783,0.0156 -0.34218,-0.0138 -0.10024,-0.008 -0.17926,-0.034 -0.0893,-0.0221 -0.18771,-0.0736 -0.0983,-0.044 -0.23728,-0.13347 -0.0645,-0.0367 -0.14533,-0.0902 -0.24644,-0.15735 -0.14065,-0.0911 -0.25291,-0.15538 -0.12233,-0.0736 -0.22453,-0.12412 -0.10939,-0.0587 -0.20406,-0.0948 -0.0993,-0.0431 -0.1922,-0.069 -0.1895,-0.0616 -0.37704,-0.0563 -0.0975,-0.009 -0.20333,-0.006 -0.32728,0.0111 -0.20692,0.0128 -0.4065,0.0672 -0.0957,0.0194 -0.16831,0.044 -0.20046,0.0728 -0.11586,0.0534 -0.20136,0.10023 -0.10023,0.0534 -0.2125,0.13705 -0.0571,0.0386 -0.12592,0.0937 -0.0654,0.0507 -0.147116,0.12142 -0.07814,0.0643 -0.17747,0.15538 -0.09287,0.0828 -0.215192,0.1949 -0.112266,0.104 -0.258482,0.24195 -0.135079,0.12772 -0.310033,0.2962 -0.161844,0.15538 -0.367873,0.35601 -0.191301,0.18574 -0.433078,0.42302 -0.113164,0.10939 -0.238184,0.23459 -0.122325,0.11856 -0.257583,0.25291 -0.130588,0.12879 -0.277702,0.27231 -0.140647,0.13885 -0.297999,0.29334 -0.151784,0.14908 -0.319195,0.31363 -0.162741,0.15987 -0.341289,0.33661 -0.173698,0.17119 -0.365179,0.3596 -0.573905,0.56547 -1.522867,1.50096 -0.376674,-0.20101 0.01796,0.005 0.0045,-0.0138 -0.0092,-0.0424 -0.02946,-0.044 -0.07437,-0.10311 -0.06269,-0.0746 -0.195792,-0.29692 -0.112266,-0.22993 -0.02659,-0.0939 -0.01293,-0.0679 -0.0074,-0.0701 -0.0036,-0.0478 -0.0064,-0.10383 -0.0038,-0.0645 -0.0054,-0.13705 -0.0029,-0.0818 -0.0054,-0.17118 -0.0029,-0.0984 -0.0045,-0.20585 -0.0029,-0.11694 -0.0036,-0.24088 -0.0019,-0.13328 -0.0036,-0.27698 -0.0018,-0.15161 -0.0029,-0.31272 -9.32e-4,-0.17011 -0.0018,-0.34865 -9.32e-4,-0.18754 -9.32e-4,-0.38547 -9.32e-4,-0.20693 -9.32e-4,-0.42302 v -0.22525 -0.45984 -0.24465 l 9.32e-4,-0.49756 v -0.26405 l 0.0018,-0.53601 9.32e-4,-0.28327 0.0018,-0.57588 9.32e-4,-0.30159 0.02766,-7.05121 0.279498,-0.39823 0.112266,-0.15537 0.0846,-0.0975 0.06718,-0.0589 0.07257,-0.0596 0.04598,-0.035 0.09843,-0.0736 0.06161,-0.0422 0.132565,-0.0902 0.08173,-0.0534 0.17298,-0.11209 0.103824,-0.0654 0.221658,-0.13796 0.130588,-0.081 0.276803,-0.16814 0.160945,-0.0975 0.339493,-0.20424 0.194893,-0.11675 0.40829,-0.24375 0.232794,-0.13795 0.484631,-0.28777 0.274109,-0.16202 0.2786,-0.16543 0.148011,-0.0875 0.300874,-0.17837 0.158968,-0.0938 0.324764,-0.19129 0.171004,-0.10113 0.347755,-0.20603 0.183937,-0.1076 0.372365,-0.22076 0.195971,-0.11496 0.399128,-0.23549 0.208726,-0.12413 0.366076,-0.216076 0.275906,-0.16364 0.149808,-0.0884 0.30716,-0.18214 0.162023,-0.0965 0.328175,-0.19507 0.169202,-0.10023 0.68348,-0.4056 0.33464,-0.19956 0.33105,-0.19777 0.15915,-0.0947 0.31273,-0.18573 0.14531,-0.0875 0.84982,-0.50115 0.26674,-0.15538 0.12502,-0.0728 0.24465,-0.14154 0.11227,-0.0635 0.21608,-0.12322 0.0956,-0.0534 0.18124,-0.10113 0.0746,-0.0413 0.13975,-0.0746 0.0505,-0.0266 0.0911,-0.0451 0.0239,-0.0111 0.26027,-0.0938 0.16292,-0.0404 0.0826,-0.007 z m 13.49097,5.628566 h 0.003 l 0.0896,0.0207 z m 0.10437,0.0234 0.003,5.3e-4 0.0115,0.003 z m 0.51355,0.2213 0.0744,0.0622 -0.004,-0.003 z m -1.82284,0.0225 -0.0386,0.0244 -0.0508,0.0383 3.6e-4,-5.5e-4 0.0524,-0.0395 z m -0.0945,0.069 -0.0683,0.0907 -0.0469,0.15807 v -0.008 l 0.0469,-0.15447 z m -0.11514,0.27644 v 0.009 l -0.0404,0.0736 -0.0499,0.0399 0.048,-0.0436 z m -0.16992,0.18699 -0.007,0.0117 -0.005,0.0183 0.0147,0.0478 0.0111,0.0258 0.044,0.0616 0.0258,0.0321 0.005,0.005 -0.0853,-0.0605 -0.0468,-0.0433 -0.008,-0.0174 -0.003,-0.0321 0.013,-0.0157 0.0348,-0.0303 z m -25.787259,17.22988 h 0.05245 l 0.105799,0.0156 0.05425,0.0332 0.05425,0.0298 -0.132384,-0.0446 -0.07922,-0.0194 -0.121965,0.0174 z m -0.271236,0.37165 -0.0083,0.0579 -0.05622,0.0857 0.05622,-0.0866 z m -0.615937,0.61289 -0.06736,0.1137 -0.02102,0.044 0.0034,-0.0119 0.02676,-0.0497 z m -0.09808,0.19039 -0.0025,0.11353 0.0014,0.009 -0.01419,-0.0555 0.0063,-0.0358 z" /></g></svg>
